<?xml version="1.0" encoding="utf-8"?>
<!-- Generator: Adobe Illustrator 15.1.0, SVG Export Plug-In . SVG Version: 6.00 Build 0)  -->
<!DOCTYPE svg PUBLIC "-//W3C//DTD SVG 1.1//EN" "http://www.w3.org/Graphics/SVG/1.1/DTD/svg11.dtd">
<svg version="1.1" id="Layer_1" xmlns="http://www.w3.org/2000/svg" xmlns:xlink="http://www.w3.org/1999/xlink" x="0px" y="0px"
	 width="434px" height="360px" viewBox="0 0 434 360" enable-background="new 0 0 434 360" xml:space="preserve">
<g>
	<path fill-rule="evenodd" clip-rule="evenodd" fill="#69BEEB" d="M91.788,165.35c-30.498-14.465-60.916-27.254-68.632-20.99
		c-37.552,15.006-27.939,158.575,28.854,113.074c15.332-10.72,28.092-20.024,42.79-32.309L91.788,165.35L91.788,165.35z"/>
	<path fill-rule="evenodd" clip-rule="evenodd" fill="#69BEEB" d="M261.695,21.75c14.673-8.696,71.078,35.366,103.528,110.205
		c4.534,10.462,6.748,13.062,18.202,14.531c14.992,1.924,30.674-0.59,42.639,4.06c7.575,2.942,12.376,11.352,1.865,13.497
		c-6.591,1.344-10.809,2.626-15.096,4.369c3.701,1.545,8.821,3.213,14.202,4.768c3.654,1.055,6.468,0.237,4.208,4.511
		c-1.088,2.06-1.252,1.869-5.232,3.226c-36.401,12.399-87.268,36.852-142.453,98.098L261.695,21.75L261.695,21.75z"/>
	<path fill-rule="evenodd" clip-rule="evenodd" fill="#F47721" d="M72.981,179.779c-13.571-14.571-23.244-39.479-21.439-66.389
		c0.357-5.352,0.185-8.656-0.692-13.968c-1.497-9.137-1.97-17.76-5.916-25.553c-8.243-16.281-7.229-28.815-3.686-39.077
		c4.468-12.92,8.055-14.6,20.904-18.917c23.754-7.961,60.537-13.51,108.004-15.583c16.052-0.705,30.318-0.382,46.023,3.756
		c18.697,4.93,51.352,11.398,58.683,31.046c14.37,38.46,25.376,84.157,33.646,127.616c2.688,14.162,3.559,20.851,0.039,34.588
		c-8.53,33.237-10.53,64.488-26.703,94.948c-6.601,8.135-15.102,22.166-25.748,28.727c-18.696,11.522-35.89,25.715-52.691,40.104
		c-1.845-17.428-2.325-32.18-0.041-48.108c-14.161,11.892-30.89,19.078-46.311,24.789c-0.501-5.055-1.112-7.797,3.921-11.981
		c-22.911,13.747-43.447,18.354-65.179,21.214c-15.304,2.014-21.858,0.801-28.092-15.184c-4.25-10.903-6.438-25.465-7.867-39.133
		c-0.949-9.144,0.311-15.493,2.646-24.439c4.479-17.167,9.953-31.182,16.416-42.028c-5.515-2.011-5.071-2.867-6.834-8.452
		c-3.465-10.95-5.689-19.319-6.683-25.105C64.293,186.304,64.139,179.11,72.981,179.779L72.981,179.779z"/>
	
		<linearGradient id="SVGID_1_" gradientUnits="userSpaceOnUse" x1="809.7373" y1="819.085" x2="727.3276" y2="775.267" gradientTransform="matrix(-0.9397 -0.342 -0.342 0.9397 1042.5996 -282.6966)">
		<stop  offset="0.14" style="stop-color:#D5EEFC"/>
		<stop  offset="0.4928" style="stop-color:#CAEBFC"/>
		<stop  offset="0.86" style="stop-color:#47C7EF"/>
	</linearGradient>
	<path fill-rule="evenodd" clip-rule="evenodd" fill="url(#SVGID_1_)" d="M89.625,176.725
		c-27.977-12.976-55.844-24.535-62.646-19.507c-33.534,11.52-22.375,127.081,27.707,90.571
		c13.565-8.547,26.823-17.757,39.769-27.622L89.625,176.725L89.625,176.725z"/>
	
		<linearGradient id="SVGID_2_" gradientUnits="userSpaceOnUse" x1="458.6099" y1="725.2754" x2="657.7412" y2="725.2754" gradientTransform="matrix(-0.9397 -0.342 -0.342 0.9397 1098.5664 -326.9105)">
		<stop  offset="0" style="stop-color:#D2EDF5"/>
		<stop  offset="0.79" style="stop-color:#BCE5F0"/>
		<stop  offset="1" style="stop-color:#BBE5F1"/>
	</linearGradient>
	<path fill-rule="evenodd" clip-rule="evenodd" fill="url(#SVGID_2_)" d="M268.769,29.873
		c14.231-8.139,49.928,38.628,89.896,104.823c5.678,9.401,6.524,12.38,17.458,15.217c13.589,3.522,28.417,3.628,43.323,3.532
		c7.948-0.053,14.736,7.776,4.495,9.721c-6.419,1.209-10.512,2.402-14.677,4.013c3.618,1.509,8.627,3.144,13.896,4.679
		c3.568,1.041,6.31,0.283,4.148,4.343c-1.041,1.944-2.043,1.542-6.096,1.971c-38.421,4.062-76.974,29.208-137.3,86.189
		L268.769,29.873L268.769,29.873z"/>
	<path fill-rule="evenodd" clip-rule="evenodd" fill="none" d="M265.448,21.378c11.572,4.689,29.662,14.192,49.044,142.611
		c1.697,11.259,2.354,17.629-0.54,28.647c-2.729,10.465-6.313,20.62-12.1,29.969L265.448,21.378L265.448,21.378z"/>
	
		<linearGradient id="SVGID_3_" gradientUnits="userSpaceOnUse" x1="638.5889" y1="555.3843" x2="726.8709" y2="884.8572" gradientTransform="matrix(-0.9249 -0.3367 -0.3324 0.9133 1030.6428 -258.3224)">
		<stop  offset="0.04" style="stop-color:#C85C28"/>
		<stop  offset="0.5276" style="stop-color:#FAED24"/>
		<stop  offset="0.73" style="stop-color:#F9E600"/>
		<stop  offset="0.96" style="stop-color:#F8EC20"/>
	</linearGradient>
	<path fill-rule="evenodd" clip-rule="evenodd" fill="url(#SVGID_3_)" d="M88.25,174.807c-12.54-13.56-21.443-36.764-19.708-61.862
		c0.343-4.988,0.188-8.066-0.608-13.025c-1.368-8.515-1.783-16.551-5.425-23.807c-7.597-15.164-6.632-26.855-3.32-36.427
		c4.168-12.06,7.503-13.642,19.419-17.691c22.033-7.486,56.137-12.746,100.133-14.798c14.881-0.688,27.209,2.036,41.748,5.858
		c17.319,4.551,48.457,8.047,55.216,26.348c13.227,35.834,23.313,78.42,30.872,118.92c2.464,13.2,3.255,19.441-0.047,32.255
		c-7.98,31.02-16.018,62.02-31.079,90.466c-6.136,7.603-11.532,17.533-21.411,23.679c-17.358,10.788-29.899,23.949-45.505,37.406
		c-1.664-16.248-1.427-31.805,0.733-46.662c-13.154,11.121-29.334,19.665-43.635,25.033c-0.452-4.712,1.658-9.028,6.33-12.94
		c-21.26,12.874-42.821,20.394-62.964,23.112c-14.188,1.914-20.26,0.801-25.997-14.093c-3.918-10.159-5.913-23.726-7.203-36.471
		c-0.858-8.521,0.33-14.452,2.511-22.795c4.193-16.024,9.3-29.1,15.316-39.231c-5.107-1.862-4.692-2.659-6.312-7.865
		c-3.185-10.205-5.229-17.998-6.132-23.396C80.19,180.903,80.062,174.197,88.25,174.807L88.25,174.807z"/>
	<path fill-rule="evenodd" clip-rule="evenodd" fill="#ACDFEA" d="M95.354,88.436c-0.331,15.25-1.452,43.376,4.827,73.652
		c1.155,5.572,3.07,8.505,5.014,13.503c2.639,6.774,3.545,17.094,3.298,29.378c-0.198,9.826,3.565,15.471,4.563,24.858
		c0.531,4.992,0.755,8.741,1.89,13.793c4.137,18.442,8.928,46.902,12.714,58.788c5.382-21.557,5.735-54.778,6.256-82.078
		c0.122-6.329,0.048-10.982-1.165-17.17c-1.577-8.09-2.054-16.07-2.405-24.456c-0.354-8.267-1.255-17.671-3.42-25.797
		C114.011,104.483,103.331,90.562,95.354,88.436L95.354,88.436z"/>
	<path fill-rule="evenodd" clip-rule="evenodd" fill="#DEF1F5" d="M96.042,98.994c-0.326,15.25-2.139,32.819,4.14,63.094
		c1.155,5.572,3.07,8.505,5.014,13.503c2.639,6.774,3.545,17.094,3.298,29.378c-0.198,9.826,3.565,15.471,4.563,24.858
		c0.531,4.992,0.646,8.762,1.89,13.793c4.397,17.728,8.228,35.254,10.202,52.105c5.382-21.557,6.293-48.392,6.817-75.691
		c0.119-6.34-0.314-11.118-1.527-17.31c-1.582-8.086-2.781-16.327-3.142-24.719c-0.351-8.271-1.213-14.36-3.386-22.485
		C111,107.1,104.022,101.116,96.042,98.994L96.042,98.994z"/>
	<path fill-rule="evenodd" clip-rule="evenodd" fill="#D5EEF1" d="M113.637,326.213c-31.629-15.936-31.269-53.127-14.582-101.525
		c1.382-3.997,2.24-7.483,2.702-11.733c1.358-12.473-0.061-24.034-4.633-35.069c-1.896-4.6-4.173-8.993-5.962-13.655
		c-8.445-21.965-11.276-43.828-12.644-60.241c-0.509-6.076-1.616-9.605-3.723-15.315c-10.95-29.688-4.883-45.304,1.621-61.628
		l-5.829-2.122c-5.124,14.927-13.34,25.28,0.384,68.054c1.47,4.583,1.788,7.545,1.844,12.379
		c0.193,15.25,1.289,31.531,13.859,60.827c1.99,4.64,4.343,9.127,6.251,13.787c4.343,10.587,6.271,21.642,4.574,33.402
		c-0.672,4.64-2.096,8.663-3.588,13.068c-17.777,52.408-15.378,89.784,16.548,103.974L113.637,326.213L113.637,326.213z"/>
	<path fill-rule="evenodd" clip-rule="evenodd" fill="#93241E" d="M204.404,70.797c7.241,8.241,34.65,120.277,10.457,192.776
		L204.404,70.797L204.404,70.797z"/>
	<path fill-rule="evenodd" clip-rule="evenodd" fill="#D4EEF6" d="M115.39,19.773c18.684-2.359,29.699-5.434,47.212,1.602
		c17.421,6.992,32.763,15.833,39.816,32.064c4.356,10.021,1.409,3.938,3.588,14.614c9.332,45.719,19.337,119.921,12.843,184.448
		c-3.507,34.882-39.496,47.931-66.699,65.431c8.996-10.652,12.445-23.325,13.862-36.743c0.85-8.057-0.112-15.668-0.73-23.731
		c-4.881-63.839-5.026-116.886-6.175-165.031c-0.223-9.371-0.44-16.627-3.547-25.54C147.307,43.211,132.861,29.145,115.39,19.773
		L115.39,19.773z"/>
	
		<linearGradient id="SVGID_4_" gradientUnits="userSpaceOnUse" x1="746.4268" y1="638.5186" x2="695.1493" y2="717.4789" gradientTransform="matrix(-0.8738 -0.318 -0.318 0.8738 1015.0164 -267.3748)">
		<stop  offset="0.04" style="stop-color:#ACDFEA"/>
		<stop  offset="0.96" style="stop-color:#D5EEF6"/>
	</linearGradient>
	<path fill-rule="evenodd" clip-rule="evenodd" fill="url(#SVGID_4_)" d="M115.777,19.865c17.149-1.568,27.29-5.272,44.072-0.099
		c16.677,5.144,31.411,27.138,36.788,42.678c3.256,9.408,7.157,22.891,8.913,32.842c3.503,19.856,11.63,46.111,11.946,63.994
		c0.588,33.543-48.876,27.932-49.986-5.724c-0.307-9.348-3.096-22.548-3.819-35.291c-1.035-18.153,2.908-30.249-3.376-48.26
		C152.641,47.986,132.024,28.581,115.777,19.865L115.777,19.865z"/>
	<path fill-rule="evenodd" clip-rule="evenodd" fill="#93241E" d="M150.961,52.388c1.876,28.782,5.114,66.146,4.325,96.661
		c-0.232,9.272-0.666,18.08,0.005,27.333c2.437,33.52,6.175,70.893,10.258,109.284c5.048-4.945,5.074-10.383,4.357-16.805
		c-3.018-26.96-5.206-53.041-7.201-78.93c-0.967-12.472-1.74-24.677-1.813-37.175C160.499,83.052,156.307,48.035,150.961,52.388
		L150.961,52.388z"/>
	<path fill-rule="evenodd" clip-rule="evenodd" fill="#93241E" d="M215.026,28.383c40.682,50.728,51.381,142.677,20.978,229.272
		C240.248,168.777,238.445,86.604,215.026,28.383L215.026,28.383z"/>
	<path fill-rule="evenodd" clip-rule="evenodd" fill="#93241E" d="M267.51,47.481c24.852,42.599,31.999,122.195,20.854,179.7
		L267.51,47.481L267.51,47.481z"/>
	<path fill-rule="evenodd" clip-rule="evenodd" fill="#DEF1F5" d="M187.07,13.565c21.614-3.005,43.048-0.652,62.041,9.329
		c14.116,7.414,15.711,12.66,20.377,27.488c15.948,50.718,20.989,108.563,18.687,171.199c-0.425,11.474-0.294,19.936-5.085,30.599
		c-8.494,18.917-25.504,46.612-18.34,30.008c21.115-48.882-28.463,30.348-53.856,60.419c14.532-35.731,24.536-71.843,28.194-108.478
		c1.163-11.658,1.568-23.389,1.924-35.096c1.565-52.022-0.695-99.828-10.88-138.117C224.955,34.67,208.555,21.21,187.07,13.565
		L187.07,13.565z"/>
	<path fill-rule="evenodd" clip-rule="evenodd" fill="#8CD6EE" d="M210.669,120.003c-5.786,5.055-30.855,18.667-45.396,18.733
		C182.202,130.792,197.903,124.007,210.669,120.003L210.669,120.003z"/>
	<path fill-rule="evenodd" clip-rule="evenodd" fill="#8CD6EE" d="M211.408,129.216c-10.698,10.62-26.287,17.039-45.299,20.551
		C181.33,141.767,196.467,134.587,211.408,129.216L211.408,129.216z"/>
	<path fill-rule="evenodd" clip-rule="evenodd" fill="#8CD6EE" d="M210.703,138.152c-11.943,10.007-25.771,17.135-42.973,19.105
		C181.628,149.965,196.049,143.804,210.703,138.152L210.703,138.152z"/>
	<path fill-rule="evenodd" clip-rule="evenodd" fill="#8CD6EE" d="M210.914,147.425c-10.807,10.142-23.839,16.94-41.256,17.177
		C183.694,158.088,197.529,152.133,210.914,147.425L210.914,147.425z"/>
	<path fill-rule="evenodd" clip-rule="evenodd" fill="#8CD6EE" d="M210.432,159.264c-15.406,9.164-26.455,14.914-37.932,12.248
		C186.76,166.671,210.214,154.196,210.432,159.264L210.432,159.264z"/>
	<path fill-rule="evenodd" clip-rule="evenodd" fill="#8CD6EE" d="M169.813,183.815c14.251-1.456,29.519-6.026,41.314-13.833
		C216.357,161.818,189.537,174.557,169.813,183.815L169.813,183.815z"/>
	<path fill-rule="evenodd" clip-rule="evenodd" fill="#8CD6EE" d="M169.875,193.905c12.284-6.91,26.316-12.495,44.202-15.18
		C199.069,185.918,183.585,191.743,169.875,193.905L169.875,193.905z"/>
	<path fill-rule="evenodd" clip-rule="evenodd" fill="#8CD6EE" d="M168.911,199.075c18.543,1.822,52.403-13.21,44.672-14.179
		C204.831,183.799,186.376,195.002,168.911,199.075L168.911,199.075z"/>
	<path fill-rule="evenodd" clip-rule="evenodd" fill="#8CD6EE" d="M170.558,207.435c18.733,1.11,37.021-4.679,43.265-11.529
		C209.681,195.8,189.647,201.797,170.558,207.435L170.558,207.435z"/>
	<path fill-rule="evenodd" clip-rule="evenodd" fill="#8CD6EE" d="M169.282,212.588c20.06,8.841,43.905-2.708,43.615-7.727
		C200.011,209.48,185.945,212.641,169.282,212.588L169.282,212.588z"/>
	<path fill-rule="evenodd" clip-rule="evenodd" fill="#8CD6EE" d="M172.802,220.921c4.045,7.671,40.154,2.62,40.239-8.35
		C202.872,218.127,189.665,221.093,172.802,220.921L172.802,220.921z"/>
	<polygon fill-rule="evenodd" clip-rule="evenodd" fill="#8CD6EE" points="172.979,229.169 216.917,222.167 172.979,229.169 	"/>
	<path fill-rule="evenodd" clip-rule="evenodd" fill="#8CD6EE" d="M177.241,235.426c16.082,6.356,34.246,0.488,39.67-6.514
		C204.496,233.159,191.642,236.29,177.241,235.426L177.241,235.426z"/>
	<path fill-rule="evenodd" clip-rule="evenodd" fill="#8CD6EE" d="M175.234,242.155c14.789,9.76,27.952,2.349,39.456-2.93
		C200.987,241.72,187.329,244.069,175.234,242.155L175.234,242.155z"/>
	
		<linearGradient id="SVGID_5_" gradientUnits="userSpaceOnUse" x1="644.4932" y1="608.2266" x2="696.2536" y2="832.4258" gradientTransform="matrix(-0.8649 -0.3148 -0.342 0.9397 1057.9858 -336.9174)">
		<stop  offset="0.04" style="stop-color:#C6E9F0"/>
		<stop  offset="0.4356" style="stop-color:#ACE0EF"/>
		<stop  offset="0.7024" style="stop-color:#84D3EB"/>
		<stop  offset="0.96" style="stop-color:#8BD6EF"/>
	</linearGradient>
	<path fill-rule="evenodd" clip-rule="evenodd" fill="url(#SVGID_5_)" d="M188.673,13.325c20.171-3.532,37.214,3.5,54.618,12.894
		c12.931,6.979,17.768,17.188,20.476,32.141c9.879,54.662,24.127,101.709,20.377,161.758c-2.362,37.812-45.225,45.399-41.963-20.66
		C245.401,134.281,252.818,32.92,188.673,13.325L188.673,13.325z"/>
	<path fill-rule="evenodd" clip-rule="evenodd" fill="#FFFFFF" d="M347.45,127.901c-8.218-2.992-20.209,2.316-23.856,12.34
		c-3.651,10.02,3.552,23.55,11.77,26.539c8.225,2.995,19.161-3.931,22.809-13.955C361.82,142.805,355.674,130.894,347.45,127.901
		L347.45,127.901z"/>
	
		<linearGradient id="SVGID_6_" gradientUnits="userSpaceOnUse" x1="595.4756" y1="638.7031" x2="575.3801" y2="704.4324" gradientTransform="matrix(-0.9397 -0.342 -0.342 0.9397 1107.0723 -318.679)">
		<stop  offset="0.05" style="stop-color:#F26322"/>
		<stop  offset="0.95" style="stop-color:#FEDD00"/>
	</linearGradient>
	<path fill-rule="evenodd" clip-rule="evenodd" fill="url(#SVGID_6_)" d="M304.456,55.976c7.321,22.324,17.292,42.662,24.567,67.915
		c1.589,5.506,7.296,7.516,7.668,9.282c0.86,4.182-2.83,11.902-4.534,19.065c-1.65,6.973-2.955,11.645,5.388,12.742
		c14.248,1.862,16.182-23.405,11.395-33.284c-2.076-4.28-5.885-4.405-8.706-9.707C327.656,98.328,316.587,72.672,304.456,55.976
		L304.456,55.976z"/>
	
		<linearGradient id="SVGID_7_" gradientUnits="userSpaceOnUse" x1="567.9912" y1="686.3857" x2="570.9448" y2="728.6238" gradientTransform="matrix(-0.9397 -0.342 -0.342 0.9397 1121.3809 -286.8968)">
		<stop  offset="0.01" style="stop-color:#F26322"/>
		<stop  offset="0.99" style="stop-color:#F3EA1B"/>
	</linearGradient>
	<path fill-rule="evenodd" clip-rule="evenodd" fill="url(#SVGID_7_)" d="M352.857,168.365c0.227,12.597-2.942,24.953-8.505,37.145
		c-0.372-10.112-1.064-20.143-3.724-29.698c-1.95-7.012,1.635-12.132,8.732-12.416C353.562,163.225,352.788,164.556,352.857,168.365
		L352.857,168.365z"/>
	<path fill-rule="evenodd" clip-rule="evenodd" d="M345.314,141.138c-2.916-1.064-6.465,1.338-7.928,5.358
		c-1.46,4.02-0.283,8.139,2.626,9.203c2.923,1.061,6.465-1.338,7.932-5.364C349.407,146.318,348.227,142.199,345.314,141.138z"/>
	
		<linearGradient id="SVGID_8_" gradientUnits="userSpaceOnUse" x1="630.5977" y1="821.6357" x2="709.2902" y2="848.7318" gradientTransform="matrix(-0.9397 -0.342 -0.342 0.9397 1091.2832 -257.1483)">
		<stop  offset="0.08" style="stop-color:#F26322"/>
		<stop  offset="0.9116" style="stop-color:#FDC010"/>
		<stop  offset="0.92" style="stop-color:#FDED0A"/>
	</linearGradient>
	<path fill-rule="evenodd" clip-rule="evenodd" fill="url(#SVGID_8_)" d="M251.576,262.495
		c-9.313,24.397-24.858,46.53-41.381,68.311c-0.929-8.623,0.336-20.015,1.473-31.244c-11.996,10.011-26.159,18.09-41.849,24.809
		c-3.335,1.427-3.702,1.757-2.518-2.201c1.054-3.525-1.29-5.921,3.132-9.575c-23.744,13.372-58.755,27.613-69.759,21.214
		c23.636-10.06,62.075-22.931,81.613-36.661c6.114-4.307,12.043-8.759,18.25-12.96C216.93,273.089,239.829,258.311,251.576,262.495
		L251.576,262.495z"/>
	<path fill-rule="evenodd" clip-rule="evenodd" fill="#525251" d="M135.29,59.208c-10.665-3.885-23.146,3.506-27.877,16.502
		c-4.731,12.989,0.083,26.67,10.749,30.556c10.669,3.885,23.151-3.506,27.88-16.502C150.77,76.775,145.957,63.094,135.29,59.208z"/>
	<path fill-rule="evenodd" clip-rule="evenodd" d="M133.286,64.718c-8.168-2.976-17.728,2.686-21.35,12.637
		c-3.622,9.951,0.066,20.429,8.233,23.398c8.168,2.975,17.73-2.679,21.352-12.634C145.14,78.168,141.456,67.694,133.286,64.718z"/>
	<polygon fill-rule="evenodd" clip-rule="evenodd" fill="#90D8F8" points="72.066,227.594 52.199,237.473 66.835,219.923 
		40.121,231.018 65.048,215.768 35.99,220.853 61.769,210.034 40.127,212.878 59.884,202.756 36.885,205.929 60.077,195.407 
		34.107,195.438 58.232,186.89 36.33,181.4 55.326,176.777 36.96,171.739 54.7,168.302 44.276,164.104 55.393,162.998 
		72.066,227.594 	"/>
	<path fill-rule="evenodd" clip-rule="evenodd" fill="#91D7EA" d="M76.923,171.238l-21.446-9.042
		c-0.806,21.645,3.768,45.382,18.48,72.682l10.13-7.443C77.186,215.692,67.691,193.678,76.923,171.238L76.923,171.238z"/>
	<path fill-rule="evenodd" clip-rule="evenodd" fill="#80AEDD" d="M428.357,161.406l-22.202,5.958l17.135,4.821
		c-4.175,0.198-38.836-0.428-20.822-10.449L428.357,161.406L428.357,161.406z"/>
</g>
</svg>
